{"title":"Afflicted - 2013 (No Cinavia) 1080p","uid":11016246,"size":4188088629,"categoryP":"video","categoryS":"hd___movies","magnet":"?xt=urn:btih:bf972ddf7993138393d66aea120eb6aead914e29&amp;dn=Afflicted+-+2013+%28No+Cinavia%29+1080p&amp;tr=udp%3A%2F%2Ftracker.openbittorrent.com%3A80&amp;tr=udp%3A%2F%2Fopen.demonii.com%3A1337&amp;tr=udp%3A%2F%2Ftracker.coppersurfer.tk%3A6969&amp;tr=udp%3A%2F%2Fexodus.desync.com%3A6969","seeders":2,"leechers":0,"uploader":"AlienMethod","files":-1,"time":1410485248,"description":"Double-Encode/StaxRip x264 1080p\nCinavia Removed/CinEx HD\nEnglish Subs from Luis-Subs (HI-Free)\n\n\n&quot;Two best friends see their trip of a lifetime take a dark turn when one of them is struck by a mysterious affliction. Now, in a foreign land, they race to uncover the source before it consumes him completely.&quot;\n\n\nVideo\nID : 1\nFormat : AVC\nFormat/Info : Advanced Video Codec\nFormat profile : &lt;a class=&quot;__cf_email__&quot; href=&quot;/cdn-cgi/l/email-protection&quot; data-cfemail=&quot;a0e8c9c7c8e0ec958e90&quot;&gt;[email&amp;#160;protected]&lt;/a&gt;&lt;script cf-hash='f9e31' type=&quot;text/javascript&quot;&gt;\n/* &lt;![CDATA[ */!function(){try{var t=&quot;currentScript&quot;in document?document.currentScript:function(){for(var t=document.getElementsByTagName(&quot;script&quot;),e=t.length;e--;)if(t[e].getAttribute(&quot;cf-hash&quot;))return t[e]}();if(t&amp;&amp;t.previousSibling){var e,r,n,i,c=t.previousSibling,a=c.getAttribute(&quot;data-cfemail&quot;);if(a){for(e=&quot;&quot;,r=parseInt(a.substr(0,2),16),n=2;a.length-n;n+=2)i=parseInt(a.substr(n,2),16)^r,e+=String.fromCharCode(i);e=document.createTextNode(e),c.parentNode.replaceChild(e,c)}}}catch(u){}}();/* ]]&gt; */&lt;/script&gt;\nFormat settings, CABAC : Yes\nFormat settings, ReFrames : 5 frames\nCodec ID : V_MPEG4/ISO/AVC\nDuration : 1h 25mn\nBit rate : 5 867 Kbps\nWidth : 1 904 pixels\nHeight : 1 040 pixels\nDisplay aspect ratio : 1.85:1\nFrame rate mode : Constant\nFrame rate : 23.976 fps\nColor space : YUV\nChroma subsampling : 4:2:0\nBit depth : 8 bits\nScan type : Progressive\nBits/(Pixel*Frame) : 0.124\nStream size : 3.44 GiB (88%)\nWriting library : x264 core 142 r2479 dd79a61\n\n\nAudio\nID : 2\nFormat : AC-3\nFormat/Info : Audio Coding 3\nMode extension : CM (complete main)\nFormat settings, Endianness : Big\nCodec ID : A_AC3\nDuration : 1h 25mn\nBit rate mode : Constant\nBit rate : 640 Kbps\nChannel(s) : 6 channels\nChannel positions : Front: L C R, Side: L R, LFE\nSampling rate : 48.0 KHz\nBit depth : 16 bits\nCompression mode : Lossy\nStream size : 393 MiB (10%)\nDefault : Yes\nForced : No\n_STATISTICS_WRITING_APP : mkvmerge v7.1.0 ('Good Love') 64bit built on Jul 27 2014 13:06:55\n_STATISTICS_WRITING_DATE_UTC : 2014-09-11 22:35:39\n_STATISTICS_TAGS : BPS DURATION NUMBER_OF_FRAMES NUMBER_OF_BYTES\nDURATION : 01:25:45.653000000\nNUMBER_OF_FRAMES : 160802\nNUMBER_OF_BYTES : 411653120\n\nText\nID : 3\nFormat : UTF-8\nCodec ID : S_TEXT/UTF8\nCodec ID/Info : UTF-8 Plain Text\nDefault : Yes\nForced : No\n\nm/ AM m/","torrent":{"xt":"urn:btih:bf972ddf7993138393d66aea120eb6aead914e29","amp;dn":"Afflicted+-+2013+%28No+Cinavia%29+1080p","amp;tr":["udp%3A%2F%2Ftracker.openbittorrent.com%3A80","udp%3A%2F%2Fopen.demonii.com%3A1337","udp%3A%2F%2Ftracker.coppersurfer.tk%3A6969","udp%3A%2F%2Fexodus.desync.com%3A6969"],"infoHash":"bf972ddf7993138393d66aea120eb6aead914e29","infoHashBuffer":{"type":"Buffer","data":[191,151,45,223,121,147,19,131,147,214,106,234,18,14,182,174,173,145,78,41]},"announce":[],"urlList":[]}}